<?xml version="1.0" standalone="no"?><!DOCTYPE svg PUBLIC "-//W3C//DTD SVG 1.1//EN" "http://www.w3.org/Graphics/SVG/1.1/DTD/svg11.dtd"><svg t="1776879155559" class="icon" viewBox="0 0 1024 1024" version="1.1" xmlns="http://www.w3.org/2000/svg" p-id="89062" xmlns:xlink="http://www.w3.org/1999/xlink" width="200" height="200"><path d="M594.711273 191.441455L99.933091 686.545455a20.596364 20.596364 0 0 0-6.842182 15.243636v208.290909c0 11.52 9.309091 20.829091 20.805818 20.829091h208.151273c5.585455 0 10.612364-2.280727 14.336-5.864727l0.558545 0.558545 495.732364-496.034909L594.711273 191.441455z m204.241454-71.703273a95.022545 95.022545 0 0 0-134.306909 4.235636l-26.414545 28.113455 91.741091 91.531636 12.148363 12.101818 5.864728 5.864728 11.35709 11.333818 30.859637 30.789818 9.239273 9.216 8.704 8.680727 12.078545 12.055273 20.573091 20.526545 8.517818 8.494546 2.56 2.56 10.891636 10.845091 1.792 1.792 3.165091 3.165091 3.746909 3.723636 3.630546 3.630545 0.605091 0.605091 29.486545-29.649454a94.952727 94.952727 0 0 0-0.349091-134.353455l-103.936-103.377454a95.022545 95.022545 0 0 0-1.954909-1.885091z" fill="#3A3A3A" p-id="89063"></path></svg>