<?xml version="1.0" standalone="no"?><!DOCTYPE svg PUBLIC "-//W3C//DTD SVG 1.1//EN" "http://www.w3.org/Graphics/SVG/1.1/DTD/svg11.dtd"><svg t="1776879125840" class="icon" viewBox="0 0 1024 1024" version="1.1" xmlns="http://www.w3.org/2000/svg" p-id="85401" xmlns:xlink="http://www.w3.org/1999/xlink" width="200" height="200"><path d="M735.762963 278.755556c-24.651852-18.962963-60.681481-15.17037-79.644444 7.585185-18.962963 24.651852-15.17037 60.681481 7.585185 79.644444 56.888889 47.407407 91.022222 115.674074 91.022222 189.62963 0 134.637037-109.985185 242.725926-242.725926 242.725926-134.637037 0-242.725926-109.985185-242.725926-242.725926 0-73.955556 32.237037-142.222222 91.022222-189.62963 24.651852-18.962963 28.444444-54.992593 9.481482-79.644444-18.962963-24.651852-54.992593-28.444444-79.644445-9.481482-85.333333 68.266667-132.740741 168.77037-132.74074 278.755556 0 197.214815 159.288889 356.503704 356.503703 356.503704s356.503704-159.288889 356.503704-356.503704c-1.896296-108.088889-49.303704-208.592593-134.637037-276.859259z" fill="#FF5A3C" p-id="85402"></path><path d="M508.207407 631.466667h5.688889c30.340741 0 53.096296-24.651852 53.096297-53.096297V202.903704c0-30.340741-24.651852-53.096296-53.096297-53.096297h-5.688889c-30.340741 0-53.096296 24.651852-53.096296 53.096297v375.466666c0 30.340741 24.651852 53.096296 53.096296 53.096297z" fill="#FF5A3C" p-id="85403"></path></svg>