<?xml version="1.0" standalone="no"?><!DOCTYPE svg PUBLIC "-//W3C//DTD SVG 1.1//EN" "http://www.w3.org/Graphics/SVG/1.1/DTD/svg11.dtd"><svg t="1776694943358" class="icon" viewBox="0 0 1024 1024" version="1.1" xmlns="http://www.w3.org/2000/svg" p-id="16057" xmlns:xlink="http://www.w3.org/1999/xlink" width="200" height="200"><path d="M568.010894 539.192011a488.061734 488.061734 0 0 0-8.599183-55.313663 409.274626 409.274626 0 0 0-37.882887-105.281889 222.184294 222.184294 0 0 0-69.723105-81.808443 114.345892 114.345892 0 0 0-62.983204-19.522469 81.808443 81.808443 0 0 0-48.108943 13.01498 129.917385 129.917385 0 0 0-25.565138 25.100317 133.403541 133.403541 0 0 0-17.663187 30.678166 94.126192 94.126192 0 0 0 0 65.307309 147.580572 147.580572 0 0 0 39.74217 55.081252A254.024512 254.024512 0 0 0 395.097594 508.049024a419.733091 419.733091 0 0 0 67.399002 28.121652 527.106673 527.106673 0 0 0 71.582387 17.430777c9.064004 1.394462 23.241035 3.253745 35.093963 4.648207v-4.880618zM555.693146 617.979119h-2.788924a423.684067 423.684067 0 0 1-43.693146-4.183386 397.886518 397.886518 0 0 1-84.364957-21.614162 335.368134 335.368134 0 0 1-144.326827-99.47163 221.719473 221.719473 0 0 1-31.607808-52.98956A401.372674 401.372674 0 0 0 255.651384 534.543804a418.338629 418.338629 0 0 0 32.072629 100.866092A325.374489 325.374489 0 0 0 343.270086 720.472084 161.292783 161.292783 0 0 0 418.338629 769.743078a86.22424 86.22424 0 0 0 19.75488 2.788924h2.091693a69.723105 69.723105 0 0 0 16.036314-1.626873 86.68906 86.68906 0 0 0 34.629142-16.501134 179.885611 179.885611 0 0 0 51.827508-74.836133 343.502497 343.502497 0 0 0 16.965956-58.799818h-3.950976z" fill="#F3981C" p-id="16058"></path><path d="M511.302769 1.394462a511.302769 511.302769 0 1 0 511.302769 511.302769 511.302769 511.302769 0 0 0-511.302769-511.302769z m333.276441 478.53291a176.864276 176.864276 0 0 1-64.145256 83.202905 313.289151 313.289151 0 0 1-156.179755 54.848842 336.995007 336.995007 0 0 1-15.106673 85.294599A227.762143 227.762143 0 0 1 538.029959 813.436223a156.179755 156.179755 0 0 1-66.236949 31.840218 142.699955 142.699955 0 0 1-29.980936 3.021335h-7.437131a153.855651 153.855651 0 0 1-35.791194-6.042669 214.282342 214.282342 0 0 1-107.373581-77.392647 412.760781 412.760781 0 0 1-78.322288-225.205628 467.609623 467.609623 0 0 1 6.7399-116.205175c8.134362-62.983205 38.115297-179.885611 205.68316-212.65547a466.447571 466.447571 0 0 1 67.863822-5.113028q17.430776 0 35.558783 1.394462a495.731276 495.731276 0 0 1 172.9133 43.228325 334.670903 334.670903 0 0 1 77.857467 48.341353 206.845211 206.845211 0 0 1 59.72946 76.463005 144.094417 144.094417 0 0 1 5.345438 104.817068z" fill="#F3981C" p-id="16059"></path><path d="M752.544712 327.001362a293.766682 293.766682 0 0 0-65.074898-49.735815 384.406718 384.406718 0 0 0-160.363141-46.48207h-26.959601a354.658193 354.658193 0 0 0-57.405356 4.415797 124.804358 124.804358 0 0 1 18.128007 7.669541 264.018157 264.018157 0 0 1 99.70404 90.175216 410.204267 410.204267 0 0 1 55.778484 119.92374 427.402633 427.402633 0 0 1 13.24739 64.842488l1.859283 16.501135v7.901951a269.131185 269.131185 0 0 0 109.232864-34.861552 118.296868 118.296868 0 0 0 46.48207-48.341353 91.104857 91.104857 0 0 0 3.950976-65.307308 162.687245 162.687245 0 0 0-38.580118-66.70177z" fill="#F3981C" p-id="16060"></path></svg>